<?xml version="1.0" encoding="utf-8"?>

<!-- Uploaded to: SVG Repo, www.svgrepo.com, Generator: SVG Repo Mixer Tools -->
<svg version="1.1" id="Icons" xmlns="http://www.w3.org/2000/svg" xmlns:xlink="http://www.w3.org/1999/xlink" 
	 viewBox="0 0 32 32" xml:space="preserve">
<style type="text/css">
	.st0{fill:none;stroke:#000000;stroke-width:2;stroke-linecap:round;stroke-linejoin:round;stroke-miterlimit:10;}
	.st1{fill:none;stroke:#000000;stroke-width:2;stroke-linejoin:round;stroke-miterlimit:10;}
</style>
<line class="st0" x1="5" y1="14" x2="3" y2="14"/>
<line class="st0" x1="20.36" y1="7.64" x2="21.78" y2="6.22"/>
<line class="st0" x1="14" y1="5" x2="14" y2="3"/>
<line class="st0" x1="7.64" y1="7.64" x2="6.22" y2="6.22"/>
<path class="st0" d="M28.5,20.97c0.32-0.76,0.5-1.59,0.5-2.47c0-3.59-3.02-6.5-6.75-6.5c-3.21,0-5.89,2.16-6.58,5.06h-0.55
	c-2.27,0-4.12,1.79-4.12,3.97c0,1.37,0.73,2.58,1.82,3.29"/>
<path class="st0" d="M11.3,19.36C9.34,18.37,8,16.34,8,14c0-3.31,2.69-6,6-6c2.78,0,5.11,1.89,5.8,4.45"/>
<line class="st0" x1="21" y1="20.5" x2="21" y2="24.04"/>
<polyline class="st0" points="22.42,19.09 21,20.5 19.58,19.09 "/>
<line class="st0" x1="17.93" y1="22.27" x2="21" y2="24.04"/>
<polyline class="st0" points="17.42,20.34 17.93,22.27 16,22.79 "/>
<line class="st0" x1="17.93" y1="25.81" x2="21" y2="24.04"/>
<polyline class="st0" points="16,25.3 17.93,25.81 17.42,27.75 "/>
<line class="st0" x1="21" y1="27.58" x2="21" y2="24.04"/>
<polyline class="st0" points="19.58,29 21,27.58 22.42,29 "/>
<line class="st0" x1="24.07" y1="25.81" x2="21" y2="24.04"/>
<polyline class="st0" points="24.58,27.75 24.07,25.81 26,25.3 "/>
<line class="st0" x1="24.07" y1="22.27" x2="21" y2="24.04"/>
<polyline class="st0" points="26,22.79 24.07,22.27 24.58,20.34 "/>
</svg>